<mxfile host="Electron" modified="2024-03-24T05:01:04.201Z" agent="Mozilla/5.0 (Windows NT 10.0; Win64; x64) AppleWebKit/537.36 (KHTML, like Gecko) draw.io/22.1.11 Chrome/114.0.5735.289 Electron/25.9.8 Safari/537.36" etag="8vZz1OFNcjKilADoJSOn" version="22.1.11" type="device">
  <diagram name="Page-1" id="F78J-hVfSkyp-8yz5WCU">
    <mxGraphModel dx="1101" dy="824" grid="1" gridSize="10" guides="1" tooltips="1" connect="1" arrows="1" fold="1" page="1" pageScale="1" pageWidth="850" pageHeight="1100" math="0" shadow="0">
      <root>
        <mxCell id="0" />
        <mxCell id="1" parent="0" />
        <mxCell id="oHJIMJNuy6-3qWKe8oxC-2" value="中国" style="rounded=0;whiteSpace=wrap;html=1;" vertex="1" parent="1">
          <mxGeometry x="150" y="250" width="90" height="40" as="geometry" />
        </mxCell>
        <mxCell id="oHJIMJNuy6-3qWKe8oxC-3" value="中心" style="rounded=0;whiteSpace=wrap;html=1;" vertex="1" parent="1">
          <mxGeometry x="150" y="290" width="90" height="40" as="geometry" />
        </mxCell>
        <mxCell id="oHJIMJNuy6-3qWKe8oxC-4" value="中学" style="rounded=0;whiteSpace=wrap;html=1;" vertex="1" parent="1">
          <mxGeometry x="150" y="330" width="90" height="40" as="geometry" />
        </mxCell>
        <mxCell id="oHJIMJNuy6-3qWKe8oxC-10" value="2" style="rounded=0;whiteSpace=wrap;html=1;" vertex="1" parent="1">
          <mxGeometry x="340" y="250" width="60" height="40" as="geometry" />
        </mxCell>
        <mxCell id="oHJIMJNuy6-3qWKe8oxC-11" value="1" style="rounded=0;whiteSpace=wrap;html=1;" vertex="1" parent="1">
          <mxGeometry x="340" y="290" width="60" height="40" as="geometry" />
        </mxCell>
        <mxCell id="oHJIMJNuy6-3qWKe8oxC-12" value="5" style="rounded=0;whiteSpace=wrap;html=1;" vertex="1" parent="1">
          <mxGeometry x="340" y="330" width="60" height="40" as="geometry" />
        </mxCell>
        <mxCell id="oHJIMJNuy6-3qWKe8oxC-14" value="8" style="rounded=0;whiteSpace=wrap;html=1;" vertex="1" parent="1">
          <mxGeometry x="400" y="250" width="60" height="40" as="geometry" />
        </mxCell>
        <mxCell id="oHJIMJNuy6-3qWKe8oxC-15" value="6" style="rounded=0;whiteSpace=wrap;html=1;" vertex="1" parent="1">
          <mxGeometry x="400" y="290" width="60" height="40" as="geometry" />
        </mxCell>
        <mxCell id="oHJIMJNuy6-3qWKe8oxC-16" value="8" style="rounded=0;whiteSpace=wrap;html=1;" vertex="1" parent="1">
          <mxGeometry x="400" y="330" width="60" height="40" as="geometry" />
        </mxCell>
        <mxCell id="oHJIMJNuy6-3qWKe8oxC-17" value="" style="endArrow=classic;html=1;rounded=0;" edge="1" parent="1">
          <mxGeometry width="50" height="50" relative="1" as="geometry">
            <mxPoint x="270" y="269.5" as="sourcePoint" />
            <mxPoint x="310" y="269.5" as="targetPoint" />
          </mxGeometry>
        </mxCell>
        <mxCell id="oHJIMJNuy6-3qWKe8oxC-19" value="9" style="rounded=0;whiteSpace=wrap;html=1;" vertex="1" parent="1">
          <mxGeometry x="460" y="250" width="60" height="40" as="geometry" />
        </mxCell>
        <mxCell id="oHJIMJNuy6-3qWKe8oxC-20" value="10" style="rounded=0;whiteSpace=wrap;html=1;" vertex="1" parent="1">
          <mxGeometry x="460" y="290" width="60" height="40" as="geometry" />
        </mxCell>
        <mxCell id="oHJIMJNuy6-3qWKe8oxC-21" value="19" style="rounded=0;whiteSpace=wrap;html=1;" vertex="1" parent="1">
          <mxGeometry x="460" y="330" width="60" height="40" as="geometry" />
        </mxCell>
        <mxCell id="oHJIMJNuy6-3qWKe8oxC-22" value="" style="strokeWidth=1;html=1;shape=mxgraph.flowchart.annotation_2;align=left;labelPosition=right;pointerEvents=1;rotation=-90;" vertex="1" parent="1">
          <mxGeometry x="170" y="365" width="50" height="80" as="geometry" />
        </mxCell>
        <mxCell id="oHJIMJNuy6-3qWKe8oxC-23" value="" style="strokeWidth=1;html=1;shape=mxgraph.flowchart.annotation_2;align=left;labelPosition=right;pointerEvents=1;rotation=-90;" vertex="1" parent="1">
          <mxGeometry x="496" y="230" width="50" height="350" as="geometry" />
        </mxCell>
        <mxCell id="oHJIMJNuy6-3qWKe8oxC-24" value="" style="endArrow=classic;html=1;rounded=0;" edge="1" parent="1">
          <mxGeometry width="50" height="50" relative="1" as="geometry">
            <mxPoint x="270" y="309.5" as="sourcePoint" />
            <mxPoint x="310" y="309.5" as="targetPoint" />
          </mxGeometry>
        </mxCell>
        <mxCell id="oHJIMJNuy6-3qWKe8oxC-25" value="" style="endArrow=classic;html=1;rounded=0;" edge="1" parent="1">
          <mxGeometry width="50" height="50" relative="1" as="geometry">
            <mxPoint x="270" y="349.5" as="sourcePoint" />
            <mxPoint x="310" y="349.5" as="targetPoint" />
          </mxGeometry>
        </mxCell>
        <mxCell id="oHJIMJNuy6-3qWKe8oxC-26" value="中方" style="rounded=0;whiteSpace=wrap;html=1;" vertex="1" parent="1">
          <mxGeometry x="150" y="210" width="90" height="40" as="geometry" />
        </mxCell>
        <mxCell id="oHJIMJNuy6-3qWKe8oxC-27" value="1" style="rounded=0;whiteSpace=wrap;html=1;" vertex="1" parent="1">
          <mxGeometry x="340" y="210" width="60" height="40" as="geometry" />
        </mxCell>
        <mxCell id="oHJIMJNuy6-3qWKe8oxC-28" value="7" style="rounded=0;whiteSpace=wrap;html=1;" vertex="1" parent="1">
          <mxGeometry x="400" y="210" width="60" height="40" as="geometry" />
        </mxCell>
        <mxCell id="oHJIMJNuy6-3qWKe8oxC-29" value="" style="endArrow=classic;html=1;rounded=0;" edge="1" parent="1">
          <mxGeometry width="50" height="50" relative="1" as="geometry">
            <mxPoint x="270" y="229.5" as="sourcePoint" />
            <mxPoint x="310" y="229.5" as="targetPoint" />
          </mxGeometry>
        </mxCell>
        <mxCell id="oHJIMJNuy6-3qWKe8oxC-30" value="15" style="rounded=0;whiteSpace=wrap;html=1;" vertex="1" parent="1">
          <mxGeometry x="460" y="210" width="60" height="40" as="geometry" />
        </mxCell>
        <mxCell id="oHJIMJNuy6-3qWKe8oxC-31" value="27" style="rounded=0;whiteSpace=wrap;html=1;" vertex="1" parent="1">
          <mxGeometry x="520" y="250" width="60" height="40" as="geometry" />
        </mxCell>
        <mxCell id="oHJIMJNuy6-3qWKe8oxC-32" value="49" style="rounded=0;whiteSpace=wrap;html=1;" vertex="1" parent="1">
          <mxGeometry x="520" y="290" width="60" height="40" as="geometry" />
        </mxCell>
        <mxCell id="oHJIMJNuy6-3qWKe8oxC-33" value="49" style="rounded=0;whiteSpace=wrap;html=1;" vertex="1" parent="1">
          <mxGeometry x="520" y="330" width="60" height="40" as="geometry" />
        </mxCell>
        <mxCell id="oHJIMJNuy6-3qWKe8oxC-34" value="36" style="rounded=0;whiteSpace=wrap;html=1;" vertex="1" parent="1">
          <mxGeometry x="580" y="250" width="60" height="40" as="geometry" />
        </mxCell>
        <mxCell id="oHJIMJNuy6-3qWKe8oxC-36" value="98" style="rounded=0;whiteSpace=wrap;html=1;" vertex="1" parent="1">
          <mxGeometry x="580" y="330" width="60" height="40" as="geometry" />
        </mxCell>
        <mxCell id="oHJIMJNuy6-3qWKe8oxC-37" value="..." style="rounded=0;whiteSpace=wrap;html=1;" vertex="1" parent="1">
          <mxGeometry x="640" y="250" width="60" height="40" as="geometry" />
        </mxCell>
        <mxCell id="oHJIMJNuy6-3qWKe8oxC-43" value="词项" style="text;html=1;strokeColor=none;fillColor=none;align=center;verticalAlign=middle;whiteSpace=wrap;rounded=0;" vertex="1" parent="1">
          <mxGeometry x="165" y="440" width="60" height="30" as="geometry" />
        </mxCell>
        <mxCell id="oHJIMJNuy6-3qWKe8oxC-44" value="全体句子ID倒排记录" style="text;html=1;strokeColor=none;fillColor=none;align=center;verticalAlign=middle;whiteSpace=wrap;rounded=0;" vertex="1" parent="1">
          <mxGeometry x="470" y="440" width="110" height="30" as="geometry" />
        </mxCell>
      </root>
    </mxGraphModel>
  </diagram>
</mxfile>
